<!DOCTYPE svg PUBLIC "-//W3C//DTD SVG 1.1//EN" "http://www.w3.org/Graphics/SVG/1.1/DTD/svg11.dtd">
<svg xmlns="http://www.w3.org/2000/svg" id="sfn-svg" class="sfn-workflow-graph" width="311" height="577">  
<g transform="translate(12,19.191667556762695)"><g class="nodes"><g class="node-container" transform="translate(143.10000610351562,19)"><g class="node anchor"><circle class="shape" x="-16.191667556762695" y="-9" r="26.191667556762695"/><text class="label"><tspan xml:space="preserve" text-anchor="middle" alignment-baseline="central">Start</tspan></text></g></g><g class="node-container" transform="translate(143.10000610351562,523)"><g class="node anchor"><circle class="shape" x="-12.175000190734863" y="-9" r="22.175000190734863"/><text class="label"><tspan xml:space="preserve" text-anchor="middle" alignment-baseline="central">End</tspan></text></g></g><g class="node-container" transform="translate(143.10000610351562,82)"><g class="node state Task Succeeded"><rect class="shape" rx="5" ry="5" x="-129.0999984741211" y="-19" width="258.1999969482422" height="38"/><text class="label"><tspan xml:space="preserve" text-anchor="middle" alignment-baseline="central">Publish to SNS topic - Start execution</tspan></text></g></g><g class="node-container" transform="translate(143.10000610351562,145)"><g class="node state Task Succeeded"><rect class="shape" rx="5" ry="5" x="-88.31666564941406" y="-19" width="176.63333129882812" height="38"/><text class="label"><tspan xml:space="preserve" text-anchor="middle" alignment-baseline="central">Run data warehouse ETL</tspan></text></g></g><g class="node-container" transform="translate(143.10000610351562,208)"><g class="node state Task Succeeded"><rect class="shape" rx="5" ry="5" x="-98.83333587646484" y="-19" width="197.6666717529297" height="38"/><text class="label"><tspan xml:space="preserve" text-anchor="middle" alignment-baseline="central">Perform data quality checks</tspan></text></g></g><g class="node-container" transform="translate(143.10000610351562,271)"><g class="node state Task Succeeded"><rect class="shape" rx="5" ry="5" x="-108.59166717529297" y="-19" width="217.18333435058594" height="38"/><text class="label"><tspan xml:space="preserve" text-anchor="middle" alignment-baseline="central">Enable JSON files for Spark job</tspan></text></g></g><g class="node-container" transform="translate(143.10000610351562,334)"><g class="node state Task Succeeded"><rect class="shape" rx="5" ry="5" x="-80.3499984741211" y="-19" width="160.6999969482422" height="38"/><text class="label"><tspan xml:space="preserve" text-anchor="middle" alignment-baseline="central">Run Spark job on EMR</tspan></text></g></g><g class="node-container" transform="translate(143.10000610351562,397)"><g class="node state Task Succeeded"><rect class="shape" rx="5" ry="5" x="-118.30833435058594" y="-19" width="236.61666870117188" height="38"/><text class="label"><tspan xml:space="preserve" text-anchor="middle" alignment-baseline="central">Bookmark JSON files as processed</tspan></text></g></g><g class="node-container" transform="translate(143.10000610351562,460)"><g class="node state Task Succeeded"><rect class="shape" rx="5" ry="5" x="-143.10000610351562" y="-19" width="286.20001220703125" height="38"/><text class="label"><tspan xml:space="preserve" text-anchor="middle" alignment-baseline="central">Publish to SNS topic - Execution complete</tspan></text></g></g></g><g class="edges"><g class="edge"><path class="path" style="fill: none;" marker-end="url(#arrowhead42)" d="M143.10000610351562,101L143.1000061035156,103.08333333333331C143.10000610351562,105.16666666666666,143.10000610351562,109.33333333333331,143.1000061035156,113.49999999999999C143.10000610351562,117.66666666666666,143.10000610351562,121.83333333333333,143.1000061035156,123.91666666666666L143.10000610351562,126"/><defs><marker id="arrowhead42" viewBox="0 0 10 10" refX="9" refY="5" markerUnits="strokeWidth" markerWidth="8" markerHeight="6" orient="auto"><path d="M 0 0 L 10 5 L 0 10 z"/></marker></defs></g><g class="edge"><path class="path" style="fill: none;" marker-end="url(#arrowhead43)" d="M143.10000610351562,45.191667556762695L143.1000061035156,46.076389630635575C143.10000610351562,46.96111170450846,143.10000610351562,48.73055585225423,143.1000061035156,51.69861125946045C143.10000610351562,54.666666666666664,143.10000610351562,58.83333333333333,143.1000061035156,60.916666666666664L143.10000610351562,63"/><defs><marker id="arrowhead43" viewBox="0 0 10 10" refX="9" refY="5" markerUnits="strokeWidth" markerWidth="8" markerHeight="6" orient="auto"><path d="M 0 0 L 10 5 L 0 10 z"/></marker></defs></g><g class="edge"><path class="path" style="fill: none;" marker-end="url(#arrowhead44)" d="M143.10000610351562,164L143.1000061035156,166.08333333333331C143.10000610351562,168.16666666666666,143.10000610351562,172.33333333333331,143.1000061035156,176.5C143.10000610351562,180.66666666666666,143.10000610351562,184.83333333333331,143.1000061035156,186.91666666666666L143.10000610351562,189"/><defs><marker id="arrowhead44" viewBox="0 0 10 10" refX="9" refY="5" markerUnits="strokeWidth" markerWidth="8" markerHeight="6" orient="auto"><path d="M 0 0 L 10 5 L 0 10 z"/></marker></defs></g><g class="edge"><path class="path" style="fill: none;" marker-end="url(#arrowhead45)" d="M143.10000610351562,227L143.1000061035156,229.0833333333333C143.10000610351562,231.16666666666663,143.10000610351562,235.33333333333331,143.1000061035156,239.5C143.10000610351562,243.66666666666666,143.10000610351562,247.83333333333331,143.1000061035156,249.91666666666666L143.10000610351562,252"/><defs><marker id="arrowhead45" viewBox="0 0 10 10" refX="9" refY="5" markerUnits="strokeWidth" markerWidth="8" markerHeight="6" orient="auto"><path d="M 0 0 L 10 5 L 0 10 z"/></marker></defs></g><g class="edge"><path class="path" style="fill: none;" marker-end="url(#arrowhead46)" d="M143.10000610351562,290L143.1000061035156,292.0833333333333C143.10000610351562,294.16666666666663,143.10000610351562,298.3333333333333,143.1000061035156,302.5C143.10000610351562,306.66666666666663,143.10000610351562,310.8333333333333,143.1000061035156,312.9166666666667L143.10000610351562,315"/><defs><marker id="arrowhead46" viewBox="0 0 10 10" refX="9" refY="5" markerUnits="strokeWidth" markerWidth="8" markerHeight="6" orient="auto"><path d="M 0 0 L 10 5 L 0 10 z"/></marker></defs></g><g class="edge"><path class="path" style="fill: none;" marker-end="url(#arrowhead47)" d="M143.10000610351562,353L143.1000061035156,355.0833333333333C143.10000610351562,357.16666666666663,143.10000610351562,361.3333333333333,143.1000061035156,365.5C143.10000610351562,369.66666666666663,143.10000610351562,373.8333333333333,143.1000061035156,375.9166666666667L143.10000610351562,378"/><defs><marker id="arrowhead47" viewBox="0 0 10 10" refX="9" refY="5" markerUnits="strokeWidth" markerWidth="8" markerHeight="6" orient="auto"><path d="M 0 0 L 10 5 L 0 10 z"/></marker></defs></g><g class="edge"><path class="path" style="fill: none;" marker-end="url(#arrowhead48)" d="M143.10000610351562,416L143.1000061035156,418.08333333333326C143.10000610351562,420.16666666666663,143.10000610351562,424.33333333333326,143.1000061035156,428.49999999999994C143.10000610351562,432.66666666666663,143.10000610351562,436.8333333333333,143.1000061035156,438.91666666666663L143.10000610351562,441"/><defs><marker id="arrowhead48" viewBox="0 0 10 10" refX="9" refY="5" markerUnits="strokeWidth" markerWidth="8" markerHeight="6" orient="auto"><path d="M 0 0 L 10 5 L 0 10 z"/></marker></defs></g><g class="edge"><path class="path" style="fill: none;" marker-end="url(#arrowhead49)" d="M143.10000610351562,479L143.1000061035156,481.08333333333326C143.10000610351562,483.16666666666663,143.10000610351562,487.33333333333326,143.1000061035156,490.97083330154413C143.10000610351562,494.608333269755,143.10000610351562,497.7166665395101,143.1000061035156,499.2708331743876L143.10000610351562,500.82499980926514"/><defs><marker id="arrowhead49" viewBox="0 0 10 10" refX="9" refY="5" markerUnits="strokeWidth" markerWidth="8" markerHeight="6" orient="auto"><path d="M 0 0 L 10 5 L 0 10 z"/></marker></defs></g></g></g><style xmlns="http://www.w3.org/1999/xhtml">.node &gt; .shape {stroke: #555555;stroke-width: 0.6px;fill: #FFFFFF;} path {stroke: #555;background-color: #555;stroke-width: 1px;} .node.state.NotYetStarted &gt; .shape,.node.state.Container &gt; .shape {stroke-dasharray: 5 2;} .node.state.Failed &gt; .shape,rect.legend.Failed {fill: #DE322F;} .node.state.CaughtError &gt; .shape,rect.legend.CaughtError {fill: #FFA500;} .node.state.Succeeded &gt; .shape,rect.legend.Succeeded {fill: #2BD62E;} .node.state.InProgress &gt; .shape,rect.legend.InProgress {fill: #53c9ed;} .node.state.Cancelled &gt; .shape,rect.legend.Cancelled {fill: #dddddd;} .node.anchor &gt; .shape {fill: #FFDA75;} .node.state.hovered:not(.selected):not(.NotYetStarted) &gt; .shape,.node.selected &gt; .shape {stroke: #555555;stroke-width: 2px;} .node.state.Container.Failed &gt; .shape {fill: #EE9592;} .node.state.Container.CaughtError &gt; .shape {fill: #FFD27F;} .node.state.Container.Succeeded &gt; .shape {fill: #91EA9A;} .node.state.Container.InProgress &gt; .shape {fill :#A9E4F7;} .node.state.Container.Cancelled &gt; .shape {fill: #EEEEEE;} marker {fill: #555555;} .node.anchor,.node.state.NotYetStarted {cursor: default;} .node.state {cursor: pointer;} tspan .label {font-weight: normal;font-size: 12px;text-shadow: none;} </style></svg>